<mxfile host="app.diagrams.net" agent="Mozilla/5.0 (Macintosh; Intel Mac OS X 10_15_7) AppleWebKit/537.36 (KHTML, like Gecko) Chrome/126.0.0.0 Safari/537.36" version="24.7.6">
  <diagram name="第 1 页" id="yI1Kvu23MIjI5fnafOQH">
    <mxGraphModel dx="933" dy="622" grid="1" gridSize="10" guides="1" tooltips="1" connect="1" arrows="1" fold="1" page="1" pageScale="1" pageWidth="827" pageHeight="1169" math="0" shadow="0">
      <root>
        <mxCell id="0" />
        <mxCell id="1" parent="0" />
        <mxCell id="wpR1VLLlO4Dwa5QESq0E-1" value="apollo" style="shape=cylinder3;whiteSpace=wrap;html=1;boundedLbl=1;backgroundOutline=1;size=15;" parent="1" vertex="1">
          <mxGeometry x="280" y="110" width="80" height="80" as="geometry" />
        </mxCell>
        <mxCell id="wpR1VLLlO4Dwa5QESq0E-2" value="Doris数据" style="shape=cylinder3;whiteSpace=wrap;html=1;boundedLbl=1;backgroundOutline=1;size=15;" parent="1" vertex="1">
          <mxGeometry x="455" y="110" width="80" height="80" as="geometry" />
        </mxCell>
        <mxCell id="wpR1VLLlO4Dwa5QESq0E-3" value="adcenter任务服务" style="rounded=1;whiteSpace=wrap;html=1;" parent="1" vertex="1">
          <mxGeometry x="265" y="250" width="110" height="60" as="geometry" />
        </mxCell>
        <mxCell id="wpR1VLLlO4Dwa5QESq0E-8" value="&lt;p data-slate-node=&quot;element&quot;&gt;&lt;span data-xhs-node-propsau=&quot;&amp;quot;500002564&amp;quot;&quot;&gt;Prometheus&lt;/span&gt;&lt;/p&gt;" style="rounded=1;whiteSpace=wrap;html=1;" parent="1" vertex="1">
          <mxGeometry x="265" y="370" width="110" height="60" as="geometry" />
        </mxCell>
        <mxCell id="wpR1VLLlO4Dwa5QESq0E-9" value="&lt;p data-slate-node=&quot;element&quot;&gt;&lt;span data-xhs-node-propsau=&quot;&amp;quot;500002564&amp;quot;&quot;&gt;xray看板&lt;/span&gt;&lt;/p&gt;" style="rounded=1;whiteSpace=wrap;html=1;" parent="1" vertex="1">
          <mxGeometry x="265" y="490" width="110" height="60" as="geometry" />
        </mxCell>
        <mxCell id="wpR1VLLlO4Dwa5QESq0E-10" value="" style="endArrow=classic;html=1;rounded=0;" parent="1" edge="1">
          <mxGeometry width="50" height="50" relative="1" as="geometry">
            <mxPoint x="430" y="280" as="sourcePoint" />
            <mxPoint x="380" y="280" as="targetPoint" />
          </mxGeometry>
        </mxCell>
        <mxCell id="wpR1VLLlO4Dwa5QESq0E-11" value="" style="endArrow=classic;html=1;rounded=0;" parent="1" edge="1">
          <mxGeometry width="50" height="50" relative="1" as="geometry">
            <mxPoint x="320" y="200" as="sourcePoint" />
            <mxPoint x="320" y="240" as="targetPoint" />
          </mxGeometry>
        </mxCell>
        <mxCell id="wpR1VLLlO4Dwa5QESq0E-12" value="" style="endArrow=classic;html=1;rounded=0;" parent="1" edge="1">
          <mxGeometry width="50" height="50" relative="1" as="geometry">
            <mxPoint x="319.5" y="320" as="sourcePoint" />
            <mxPoint x="319.5" y="360" as="targetPoint" />
          </mxGeometry>
        </mxCell>
        <mxCell id="wpR1VLLlO4Dwa5QESq0E-19" value="sql结果转换成打点数据" style="edgeLabel;html=1;align=center;verticalAlign=middle;resizable=0;points=[];" parent="wpR1VLLlO4Dwa5QESq0E-12" vertex="1" connectable="0">
          <mxGeometry x="-0.15" relative="1" as="geometry">
            <mxPoint x="1" as="offset" />
          </mxGeometry>
        </mxCell>
        <mxCell id="wpR1VLLlO4Dwa5QESq0E-17" value="打点sql" style="rounded=1;whiteSpace=wrap;html=1;" parent="1" vertex="1">
          <mxGeometry x="100" y="120" width="110" height="60" as="geometry" />
        </mxCell>
        <mxCell id="wpR1VLLlO4Dwa5QESq0E-18" value="" style="endArrow=classic;html=1;rounded=0;" parent="1" edge="1">
          <mxGeometry width="50" height="50" relative="1" as="geometry">
            <mxPoint x="220" y="150" as="sourcePoint" />
            <mxPoint x="270" y="150" as="targetPoint" />
          </mxGeometry>
        </mxCell>
        <mxCell id="wpR1VLLlO4Dwa5QESq0E-20" value="" style="endArrow=classic;html=1;rounded=0;" parent="1" edge="1">
          <mxGeometry width="50" height="50" relative="1" as="geometry">
            <mxPoint x="319.5" y="440" as="sourcePoint" />
            <mxPoint x="319.5" y="480" as="targetPoint" />
          </mxGeometry>
        </mxCell>
        <mxCell id="wpR1VLLlO4Dwa5QESq0E-21" value="手动配置看板" style="edgeLabel;html=1;align=center;verticalAlign=middle;resizable=0;points=[];" parent="wpR1VLLlO4Dwa5QESq0E-20" vertex="1" connectable="0">
          <mxGeometry x="-0.2" relative="1" as="geometry">
            <mxPoint as="offset" />
          </mxGeometry>
        </mxCell>
        <mxCell id="skFV6jzqiymg1l3Q89ML-1" value="adCoreData服务" style="rounded=1;whiteSpace=wrap;html=1;" vertex="1" parent="1">
          <mxGeometry x="440" y="250" width="110" height="60" as="geometry" />
        </mxCell>
        <mxCell id="skFV6jzqiymg1l3Q89ML-2" value="" style="endArrow=classic;html=1;rounded=0;" edge="1" parent="1">
          <mxGeometry width="50" height="50" relative="1" as="geometry">
            <mxPoint x="494.71" y="200" as="sourcePoint" />
            <mxPoint x="494.71" y="240" as="targetPoint" />
          </mxGeometry>
        </mxCell>
      </root>
    </mxGraphModel>
  </diagram>
</mxfile>
